#!OML:ASF I:\Actors\actors\Patient Classification 2\Patient 1\Session 1\actor1.ASF
:FULLY-SPECIFIED
:DEGREES
801
root -0.667667 18.7663 5.79204 3.61573 -1.69616 -5.0453
lowerback 8.22403 0.883561 0.494031
upperback 1.61324 1.26424 1.46406
thorax -2.96257 0.628076 1.10029
lowerneck -12.6827 -2.59644 -0.954302
upperneck 31.598 -4.24927 2.16569
head 12.6627 -1.71999 0.383042
rclavicle 8.64713e-015 -5.1684e-015
rhumerus -27.9327 39.1942 -78.2863
rradius 110.934
rwrist 13.1909
rhand -16.9603 -23.7909
rfingers 7.12502
rthumb 9.27363 -413.567
lclavicle 8.64713e-015 -5.1684e-015
lhumerus -19.467 -42.8691 76.3883
lradius 103.145
lwrist -1.42945
lhand -12.3717 -38.8835
lfingers 7.12502
lthumb 13.6988 -9.35436
rfemur 0 0 0
rtibia 0
rfoot 0 0
rtoes 0
lfemur -7.97993 -4.13515 -8.5903
ltibia 23.8073
lfoot -22.1435 12.4273
ltoes -55.8715
802
root -0.666909 18.7658 5.79389 3.60174 -1.68683 -5.02103
lowerback 8.1719 0.876103 0.476277
upperback 1.6282 1.25181 1.4624
thorax -2.91824 0.622057 1.11074
lowerneck -12.6663 -2.58982 -0.942822
upperneck 31.4527 -4.22673 2.13388
head 12.5973 -1.71479 0.37253
rclavicle -1.49089e-016 -2.88238e-014
rhumerus -28.1188 38.7217 -78.3768
rradius 111.082
rwrist 13.3428
rhand -17.402 -23.5135
rfingers 7.12502
rthumb 8.84739 -413.308
lclavicle -1.49089e-016 -2.88238e-014
lhumerus -20.0375 -42.337 76.8757
lradius 103.327
lwrist -1.56988
lhand -11.7933 -38.5581
lfingers 7.12502
lthumb 14.2561 -9.06745
rfemur 0 0 0
rtibia 0
rfoot 0 0
rtoes 0
lfemur -7.95612 -4.15908 -8.62346
ltibia 23.7957
lfoot -22.1839 12.4552
ltoes -55.9651
803
root -0.66591 18.7649 5.79734 3.58809 -1.67034 -5.01891
lowerback 8.21852 0.876789 0.508676
upperback 1.57116 1.25664 1.44804
thorax -3.00223 0.624188 1.07605
lowerneck -12.6001 -2.59334 -0.978148
upperneck 31.2897 -4.25005 2.23803
head 12.5205 -1.71868 0.416119
rclavicle -3.2054e-014 1.09332e-014
rhumerus -28.668 38.2117 -78.6663
rradius 111.349
rwrist 13.6039
rhand -17.998 -23.0799
rfingers 7.12502
rthumb 8.27225 -412.898
lclavicle -3.2054e-014 1.09332e-014
lhumerus -20.7509 -41.8237 77.4676
lradius 103.507
lwrist -1.77253
lhand -11.086 -38.3527
lfingers 7.12502
lthumb 14.9376 -8.91132
rfemur 0 0 0
rtibia 0
rfoot 0 0
rtoes 0
lfemur -7.93124 -4.19892 -8.63491
ltibia 23.7924
lfoot -22.226 12.526
ltoes -56.0822
804
root -0.665544 18.7643 5.8022 3.5836 -1.65552 -5.03535
lowerback 8.25791 0.888081 0.558613
upperback 1.50867 1.2769 1.42762
thorax -3.08756 0.633755 1.02363
lowerneck -12.586 -2.61656 -1.04908
upperneck 31.1462 -4.32267 2.43355
head 12.4677 -1.73608 0.492606
rclavicle -4.96962e-015 -2.18663e-014
rhumerus -29.3851 37.629 -79.0373
rradius 111.649
rwrist 14.0022
rhand -19.2384 -22.9748
rfingers 7.12502
rthumb 7.075 -412.837
lclavicle -4.96962e-015 -2.18663e-014
lhumerus -21.4696 -41.3445 78.0414
lradius 103.625
lwrist -1.99715
lhand -10.3258 -38.4518
lfingers 7.12502
lthumb 15.6698 -9.06637
rfemur 0 0 0
rtibia 0
rfoot 0 0
rtoes 0
lfemur -7.91228 -4.23921 -8.62217
ltibia 23.7922
lfoot -22.2485 12.5409
ltoes -56.0643
805
root -0.665399 18.7649 5.80824 3.59795 -1.65099 -5.04663
lowerback 8.22691 0.890545 0.553365
upperback 1.45168 1.28076 1.44086
thorax -3.12977 0.635855 1.03986
lowerneck -12.6006 -2.6409 -1.09894
upperneck 31.0343 -4.35964 2.49223
head 12.4288 -1.7521 0.517953
rclavicle -2.98177e-016 1.59028e-015
rhumerus -30.1764 37.1588 -79.4045
rradius 111.936
rwrist 14.3901
rhand -21.0812 -23.0771
rfingers 7.12502
rthumb 5.29594 -412.991
lclavicle -2.98177e-016 1.59028e-015
lhumerus -22.3916 -40.7603 78.7142
lradius 103.745
lwrist -2.36786
lhand -9.53978 -38.766
lfingers 7.12502
lthumb 16.4268 -9.44156
rfemur 0 0 0
rtibia 0
rfoot 0 0
rtoes 0
lfemur -7.90402 -4.26738 -8.61191
ltibia 23.7854
lfoot -22.2668 12.4941
ltoes -55.9736
806
root -0.664422 18.7654 5.8163 3.61605 -1.6316 -5.00675
lowerback 8.15613 0.885916 0.505423
upperback 1.37811 1.27118 1.4522
thorax -3.16766 0.631789 1.08002
lowerneck -12.5513 -2.65169 -1.02438
upperneck 30.8802 -4.3326 2.31652
head 12.3477 -1.75647 0.443017
rclavicle -1.16289e-014 5.56597e-015
rhumerus -31.164 36.6959 -79.8457
rradius 112.247
rwrist 14.7795
rhand -23.2198 -23.3256
rfingers 7.12502
rthumb 3.23079 -413.281
lclavicle -1.16289e-014 5.56597e-015
lhumerus -23.5406 -40.1459 79.5206
lradius 103.87
lwrist -2.83986
lhand -8.79591 -39.1594
lfingers 7.12502
lthumb 17.1429 -9.89565
rfemur 0 0 0
rtibia 0
rfoot 0 0
rtoes 0
lfemur -7.89627 -4.30801 -8.66371
ltibia 23.7784
lfoot -22.2871 12.4836
ltoes -55.9476
807
root -0.663696 18.7651 5.82546 3.62136 -1.57627 -4.93261
lowerback 8.06821 0.888454 0.466088
upperback 1.30788 1.27035 1.42671
thorax -3.19162 0.631862 1.0766
lowerneck -12.5017 -2.67406 -0.92892
upperneck 30.7255 -4.34103 2.18238
head 12.2683 -1.76874 0.37554
rclavicle -1.44119e-015 -8.54774e-015
rhumerus -32.351 36.0545 -80.3754
rradius 112.595
rwrist 15.2297
rhand -25.5153 -23.6084
rfingers 7.12502
rthumb 1.01391 -413.586
lclavicle -1.44119e-015 -8.54774e-015
lhumerus -24.7659 -39.6043 80.3882
lradius 103.894
lwrist -3.32791
lhand -8.18104 -39.6418
lfingers 7.12502
lthumb 17.7346 -10.4305
rfemur 0 0 0
rtibia 0
rfoot 0 0
rtoes 0
lfemur -7.88679 -4.35169 -8.75135
ltibia 23.7765
lfoot -22.3084 12.5122
ltoes -55.9847
808
root -0.663748 18.7647 5.83527 3.63133 -1.52025 -4.9286
lowerback 7.94332 0.882722 0.488273
upperback 1.23976 1.26389 1.41808
thorax -3.19172 0.628564 1.0572
lowerneck -12.4467 -2.68296 -0.918804
upperneck 30.5982 -4.36 2.20862
head 12.2061 -1.77496 0.382035
rclavicle -9.39258e-015 1.33186e-014
rhumerus -33.563 35.3464 -80.9164
rradius 112.945
rwrist 15.6372
rhand -27.6473 -24.164
rfingers 7.12502
rthumb -1.04529 -414.141
lclavicle -9.39258e-015 1.33186e-014
lhumerus -26.1319 -39.0529 81.3545
lradius 103.8
lwrist -3.89416
lhand -7.7342 -40.1556
lfingers 7.12502
lthumb 18.1646 -10.9838
rfemur 0 0 0
rtibia 0
rfoot 0 0
rtoes 0
lfemur -7.88611 -4.33909 -8.75166
ltibia 23.7814
lfoot -22.3204 12.4816
ltoes -56.0187
809
root -0.662755 18.7636 5.8478 3.6473 -1.46489 -4.97788
lowerback 7.76882 0.856205 0.563902
upperback 1.17256 1.2343 1.43232
thorax -3.16221 0.613303 1.03453
lowerneck -12.3261 -2.67178 -0.918837
upperneck 30.405 -4.33973 2.21868
head 12.1029 -1.7687 0.390766
rclavicle -5.61567e-015 1.37161e-014
rhumerus -34.7404 34.5811 -81.4768
rradius 113.201
rwrist 16.0855
rhand -29.2428 -24.7451
rfingers 7.12502
rthumb -2.58624 -414.709
lclavicle -5.61567e-015 1.37161e-014
lhumerus -27.6695 -38.4872 82.3952
lradius 103.613
lwrist -4.39946
lhand -7.46033 -40.69
lfingers 7.12502
lthumb 18.428 -11.5429
rfemur 0 0 0
rtibia 0
rfoot 0 0
rtoes 0
lfemur -7.88662 -4.33729 -8.69577
ltibia 23.7999
lfoot -22.3365 12.3875
ltoes -55.9759
810
root -0.660604 18.7616 5.86238 3.64746 -1.42634 -4.99297
lowerback 7.60125 0.838546 0.607235
upperback 1.11287 1.2137 1.45095
thorax -3.12966 0.602863 1.03349
lowerneck -12.2636 -2.6801 -0.968104
upperneck 30.1957 -4.33282 2.22311
head 12.0072 -1.77413 0.403111
rclavicle -1.56543e-014 7.7526e-015
rhumerus -36.0459 33.7055 -82.1268
rradius 113.346
rwrist 16.6528
rhand -30.3149 -24.8669
rfingers 7.12502
rthumb -3.62154 -414.816
lclavicle -1.56543e-014 7.7526e-015
lhumerus -29.3546 -38.0281 83.497
lradius 103.314
lwrist -4.72036
lhand -7.47617 -41.2375
lfingers 7.12502
lthumb 18.4128 -12.0889
rfemur 0 0 0
rtibia 0
rfoot 0 0
rtoes 0
lfemur -7.86126 -4.38796 -8.69066
ltibia 23.8286
lfoot -22.4027 12.3445
ltoes -55.8689
811
root -0.659639 18.7591 5.87792 3.63517 -1.37688 -4.98492
lowerback 7.4595 0.832059 0.618858
upperback 1.04735 1.20573 1.46906
thorax -3.11834 0.599033 1.04797
lowerneck -12.3165 -2.70285 -1.06332
upperneck 30.0694 -4.35296 2.27504
head 11.972 -1.7883 0.435485
rclavicle 2.18663e-015 -1.09332e-014
rhumerus -37.5492 32.7279 -82.9109
rradius 113.414
rwrist 17.2725
rhand -30.934 -24.8322
rfingers 7.12502
rthumb -4.21945 -414.77
lclavicle 2.18663e-015 -1.09332e-014
lhumerus -31.21 -37.7272 84.7027
lradius 102.882
lwrist -4.9834
lhand -7.82493 -41.6788
lfingers 7.12502
lthumb 18.0773 -12.4989
rfemur 0 0 0
rtibia 0
rfoot 0 0
rtoes 0
lfemur -7.82544 -4.37429 -8.70194
ltibia 23.8539
lfoot -22.4443 12.2754
ltoes -55.85
